<svg width="112" height="45" viewBox="0 0 112 45" fill="none" xmlns="http://www.w3.org/2000/svg">
<rect width="34" height="30" rx="4" fill="#56A4FF" fill-opacity="0.63"/>
<path d="M16.032 14.168C16.032 15.56 15.552 16.72 14.592 17.648C13.648 18.56 12.2 19.016 10.248 19.016H7.032V26H4.848V9.272H10.248C12.136 9.272 13.568 9.728 14.544 10.64C15.536 11.552 16.032 12.728 16.032 14.168ZM10.248 17.216C11.464 17.216 12.36 16.952 12.936 16.424C13.512 15.896 13.8 15.144 13.8 14.168C13.8 12.104 12.616 11.072 10.248 11.072H7.032V17.216H10.248ZM24.4824 26.216C23.2504 26.216 22.1304 25.936 21.1224 25.376C20.1304 24.816 19.3464 24.024 18.7704 23C18.2104 21.96 17.9304 20.76 17.9304 19.4C17.9304 18.056 18.2184 16.872 18.7944 15.848C19.3864 14.808 20.1864 14.016 21.1944 13.472C22.2024 12.912 23.3304 12.632 24.5784 12.632C25.8264 12.632 26.9544 12.912 27.9624 13.472C28.9704 14.016 29.7624 14.8 30.3384 15.824C30.9304 16.848 31.2264 18.04 31.2264 19.4C31.2264 20.76 30.9224 21.96 30.3144 23C29.7224 24.024 28.9144 24.816 27.8904 25.376C26.8664 25.936 25.7304 26.216 24.4824 26.216ZM24.4824 24.296C25.2664 24.296 26.0024 24.112 26.6904 23.744C27.3784 23.376 27.9304 22.824 28.3464 22.088C28.7784 21.352 28.9944 20.456 28.9944 19.4C28.9944 18.344 28.7864 17.448 28.3704 16.712C27.9544 15.976 27.4104 15.432 26.7384 15.08C26.0664 14.712 25.3384 14.528 24.5544 14.528C23.7544 14.528 23.0184 14.712 22.3464 15.08C21.6904 15.432 21.1624 15.976 20.7624 16.712C20.3624 17.448 20.1624 18.344 20.1624 19.4C20.1624 20.472 20.3544 21.376 20.7384 22.112C21.1384 22.848 21.6664 23.4 22.3224 23.768C22.9784 24.12 23.6984 24.296 24.4824 24.296ZM36.282 14.984C36.666 14.232 37.21 13.648 37.914 13.232C38.634 12.816 39.506 12.608 40.53 12.608V14.864H39.954C37.506 14.864 36.282 16.192 36.282 18.848V26H34.098V12.848H36.282V14.984ZM45.7151 14.648V22.4C45.7151 23.04 45.8511 23.496 46.1231 23.768C46.3951 24.024 46.8671 24.152 47.5391 24.152H49.1471V26H47.1791C45.9631 26 45.0511 25.72 44.4431 25.16C43.8351 24.6 43.5311 23.68 43.5311 22.4V14.648H41.8271V12.848H43.5311V9.536H45.7151V12.848H49.1471V14.648H45.7151ZM57.1453 14.648H54.3853V26H52.2013V14.648H50.4973V12.848H52.2013V11.912C52.2013 10.44 52.5773 9.368 53.3293 8.696C54.0973 8.008 55.3213 7.664 57.0013 7.664V9.488C56.0413 9.488 55.3613 9.68 54.9613 10.064C54.5773 10.432 54.3853 11.048 54.3853 11.912V12.848H57.1453V14.648ZM65.4278 26.216C64.1958 26.216 63.0758 25.936 62.0678 25.376C61.0758 24.816 60.2918 24.024 59.7158 23C59.1558 21.96 58.8758 20.76 58.8758 19.4C58.8758 18.056 59.1638 16.872 59.7398 15.848C60.3318 14.808 61.1318 14.016 62.1398 13.472C63.1478 12.912 64.2758 12.632 65.5238 12.632C66.7718 12.632 67.8998 12.912 68.9078 13.472C69.9158 14.016 70.7078 14.8 71.2838 15.824C71.8758 16.848 72.1718 18.04 72.1718 19.4C72.1718 20.76 71.8678 21.96 71.2598 23C70.6678 24.024 69.8598 24.816 68.8358 25.376C67.8118 25.936 66.6758 26.216 65.4278 26.216ZM65.4278 24.296C66.2118 24.296 66.9478 24.112 67.6358 23.744C68.3238 23.376 68.8758 22.824 69.2918 22.088C69.7238 21.352 69.9398 20.456 69.9398 19.4C69.9398 18.344 69.7318 17.448 69.3158 16.712C68.8998 15.976 68.3558 15.432 67.6838 15.08C67.0118 14.712 66.2838 14.528 65.4998 14.528C64.6998 14.528 63.9638 14.712 63.2918 15.08C62.6358 15.432 62.1078 15.976 61.7078 16.712C61.3078 17.448 61.1078 18.344 61.1078 19.4C61.1078 20.472 61.2998 21.376 61.6838 22.112C62.0838 22.848 62.6118 23.4 63.2678 23.768C63.9238 24.12 64.6438 24.296 65.4278 24.296ZM77.2273 8.24V26H75.0433V8.24H77.2273ZM82.0776 10.712C81.6616 10.712 81.3096 10.568 81.0216 10.28C80.7336 9.992 80.5896 9.64 80.5896 9.224C80.5896 8.808 80.7336 8.456 81.0216 8.168C81.3096 7.88 81.6616 7.736 82.0776 7.736C82.4776 7.736 82.8136 7.88 83.0856 8.168C83.3736 8.456 83.5176 8.808 83.5176 9.224C83.5176 9.64 83.3736 9.992 83.0856 10.28C82.8136 10.568 82.4776 10.712 82.0776 10.712ZM83.1336 12.848V26H80.9496V12.848H83.1336ZM92.5918 26.216C91.3598 26.216 90.2398 25.936 89.2318 25.376C88.2398 24.816 87.4558 24.024 86.8798 23C86.3198 21.96 86.0398 20.76 86.0398 19.4C86.0398 18.056 86.3278 16.872 86.9038 15.848C87.4958 14.808 88.2958 14.016 89.3038 13.472C90.3118 12.912 91.4398 12.632 92.6878 12.632C93.9358 12.632 95.0638 12.912 96.0718 13.472C97.0798 14.016 97.8718 14.8 98.4478 15.824C99.0398 16.848 99.3358 18.04 99.3358 19.4C99.3358 20.76 99.0318 21.96 98.4238 23C97.8318 24.024 97.0238 24.816 95.9998 25.376C94.9758 25.936 93.8398 26.216 92.5918 26.216ZM92.5918 24.296C93.3758 24.296 94.1118 24.112 94.7998 23.744C95.4878 23.376 96.0398 22.824 96.4558 22.088C96.8878 21.352 97.1038 20.456 97.1038 19.4C97.1038 18.344 96.8958 17.448 96.4798 16.712C96.0638 15.976 95.5198 15.432 94.8478 15.08C94.1758 14.712 93.4478 14.528 92.6638 14.528C91.8638 14.528 91.1278 14.712 90.4558 15.08C89.7998 15.432 89.2718 15.976 88.8718 16.712C88.4718 17.448 88.2718 18.344 88.2718 19.4C88.2718 20.472 88.4638 21.376 88.8478 22.112C89.2478 22.848 89.7758 23.4 90.4318 23.768C91.0878 24.12 91.8078 24.296 92.5918 24.296Z" fill="black"/>
<path d="M82 11C80.3431 11 79 9.65685 79 8C79 6.34315 80.3431 5 82 5C83.6569 5 85 6.34315 85 8C85 9.65685 83.6569 11 82 11Z" stroke="#56A4FF"/>
<path d="M67.656 42.24C67.384 42.24 67.128 42.176 66.888 42.048C66.664 41.92 66.496 41.68 66.384 41.328C66.336 41.184 66.312 40.984 66.312 40.728C66.312 40.376 66.36 39.984 66.456 39.552C66.552 39.12 66.656 38.752 66.768 38.448C66.688 38.48 66.536 38.624 66.312 38.88C66.104 39.12 65.84 39.416 65.52 39.768C65.216 40.104 64.872 40.448 64.488 40.8C64.12 41.136 63.736 41.416 63.336 41.64C62.936 41.864 62.544 41.976 62.16 41.976C61.904 41.976 61.632 41.904 61.344 41.76C61.056 41.6 60.824 41.4 60.648 41.16C60.408 40.84 60.288 40.512 60.288 40.176C60.288 39.744 60.432 39.296 60.72 38.832C61.024 38.368 61.408 37.92 61.872 37.488C62.352 37.04 62.856 36.64 63.384 36.288C63.928 35.92 64.44 35.616 64.92 35.376C65.416 35.12 65.816 34.952 66.12 34.872C66.44 34.776 66.8 34.728 67.2 34.728C67.424 34.728 67.656 34.76 67.896 34.824C68.136 34.872 68.336 34.96 68.496 35.088C68.624 35.152 68.728 35.24 68.808 35.352C68.888 35.464 68.928 35.584 68.928 35.712C68.928 35.84 68.872 35.88 68.76 35.832C68.632 35.64 68.456 35.52 68.232 35.472C68.024 35.408 67.808 35.376 67.584 35.376C66.944 35.376 66.24 35.584 65.472 36C64.704 36.416 64.016 36.904 63.408 37.464C63.216 37.624 62.952 37.904 62.616 38.304C62.296 38.688 62 39.112 61.728 39.576C61.456 40.04 61.32 40.464 61.32 40.848C61.32 41.056 61.376 41.24 61.488 41.4C61.552 41.512 61.656 41.568 61.8 41.568C62.024 41.568 62.32 41.448 62.688 41.208C63.072 40.968 63.464 40.68 63.864 40.344C64.264 39.992 64.624 39.656 64.944 39.336C65.28 39.016 65.52 38.784 65.664 38.64C65.744 38.56 65.896 38.4 66.12 38.16C66.36 37.904 66.616 37.632 66.888 37.344C67.16 37.056 67.4 36.808 67.608 36.6C67.832 36.392 67.976 36.288 68.04 36.288C68.12 36.288 68.248 36.312 68.424 36.36C68.616 36.392 68.776 36.448 68.904 36.528C69.032 36.608 69.056 36.712 68.976 36.84C68.56 37.448 68.224 38.088 67.968 38.76C67.728 39.416 67.584 39.936 67.536 40.32C67.52 40.384 67.512 40.448 67.512 40.512C67.512 40.56 67.512 40.616 67.512 40.68C67.512 41.32 67.736 41.64 68.184 41.64C68.424 41.64 68.744 41.496 69.144 41.208C69.544 40.92 69.952 40.576 70.368 40.176C70.784 39.776 71.16 39.392 71.496 39.024C71.848 38.64 72.088 38.352 72.216 38.16C72.264 38.112 72.312 38.088 72.36 38.088C72.424 38.088 72.48 38.12 72.528 38.184C72.576 38.232 72.576 38.296 72.528 38.376C72.352 38.664 72.096 39.008 71.76 39.408C71.424 39.808 71.048 40.208 70.632 40.608C70.216 41.008 69.808 41.352 69.408 41.64C69.2 41.8 68.936 41.936 68.616 42.048C68.296 42.176 67.976 42.24 67.656 42.24ZM78.267 44.616C77.851 44.552 77.555 44.352 77.379 44.016C77.203 43.68 77.115 43.264 77.115 42.768C77.115 42.176 77.195 41.536 77.355 40.848C77.531 40.16 77.731 39.512 77.955 38.904C78.179 38.296 78.355 37.832 78.483 37.512C78.115 37.944 77.691 38.416 77.211 38.928C76.747 39.44 76.259 39.928 75.747 40.392C75.235 40.856 74.739 41.24 74.259 41.544C73.795 41.832 73.387 41.976 73.035 41.976C72.779 41.976 72.507 41.904 72.219 41.76C71.931 41.6 71.699 41.4 71.523 41.16C71.283 40.84 71.163 40.512 71.163 40.176C71.163 39.744 71.307 39.296 71.595 38.832C71.899 38.368 72.283 37.92 72.747 37.488C73.227 37.04 73.731 36.64 74.259 36.288C74.803 35.92 75.315 35.616 75.795 35.376C76.291 35.12 76.691 34.952 76.995 34.872C77.155 34.84 77.323 34.808 77.499 34.776C77.675 34.744 77.859 34.728 78.051 34.728C78.291 34.728 78.531 34.76 78.771 34.824C79.011 34.872 79.211 34.96 79.371 35.088L79.467 35.16C79.851 34.28 80.275 33.392 80.739 32.496C81.203 31.584 81.699 30.752 82.227 30C82.755 29.248 83.315 28.648 83.907 28.2C84.499 27.736 85.115 27.504 85.755 27.504C85.835 27.504 85.915 27.512 85.995 27.528C86.075 27.528 86.147 27.536 86.211 27.552C86.611 27.632 86.891 27.776 87.051 27.984C87.227 28.176 87.315 28.408 87.315 28.68C87.315 28.872 87.275 29.08 87.195 29.304C87.131 29.512 87.035 29.72 86.907 29.928C86.555 30.552 86.091 31.168 85.515 31.776C84.955 32.384 84.339 32.976 83.667 33.552C82.995 34.112 82.323 34.656 81.651 35.184C80.995 35.712 80.395 36.208 79.851 36.672C79.611 37.232 79.371 37.888 79.131 38.64C78.891 39.392 78.691 40.032 78.531 40.56C78.435 40.944 78.355 41.304 78.291 41.64C78.243 41.976 78.219 42.288 78.219 42.576C78.219 43.104 78.315 43.536 78.507 43.872C78.667 44.128 78.867 44.256 79.107 44.256C79.283 44.256 79.443 44.192 79.587 44.064C79.651 44.032 79.707 43.992 79.755 43.944C79.819 43.896 79.891 43.848 79.971 43.8C80.067 43.752 80.147 43.728 80.211 43.728C80.323 43.728 80.331 43.816 80.235 43.992C80.187 44.04 80.131 44.096 80.067 44.16C80.003 44.24 79.931 44.32 79.851 44.4C79.739 44.48 79.571 44.544 79.347 44.592C79.123 44.64 78.899 44.664 78.675 44.664C78.611 44.664 78.539 44.656 78.459 44.64C78.395 44.64 78.331 44.632 78.267 44.616ZM80.571 35.304C81.211 34.872 81.907 34.336 82.659 33.696C83.411 33.04 84.115 32.344 84.771 31.608C85.427 30.856 85.931 30.144 86.283 29.472C86.491 29.088 86.595 28.784 86.595 28.56C86.595 28.288 86.475 28.152 86.235 28.152C86.011 28.152 85.715 28.28 85.347 28.536C84.275 29.368 83.371 30.36 82.635 31.512C81.899 32.648 81.211 33.912 80.571 35.304ZM72.363 41.4C72.443 41.496 72.547 41.544 72.675 41.544C72.915 41.544 73.195 41.44 73.515 41.232C73.851 41.024 74.075 40.864 74.187 40.752C75.003 40.096 75.819 39.392 76.635 38.64C77.467 37.872 78.243 37.104 78.963 36.336C79.027 36.192 79.083 36.056 79.131 35.928C79.179 35.784 79.235 35.648 79.299 35.52C79.059 35.424 78.779 35.376 78.459 35.376C77.819 35.376 77.115 35.584 76.347 36C75.579 36.416 74.891 36.904 74.283 37.464C74.091 37.624 73.827 37.904 73.491 38.304C73.171 38.688 72.875 39.112 72.603 39.576C72.331 40.04 72.195 40.464 72.195 40.848C72.195 41.056 72.251 41.24 72.363 41.4ZM80.4036 42.312C80.2756 42.312 80.2356 42.256 80.2836 42.144C80.3476 42.032 80.4596 41.752 80.6196 41.304C80.7956 40.84 80.9876 40.296 81.1956 39.672C81.4196 39.048 81.6356 38.448 81.8436 37.872C81.6836 38.112 81.5076 38.344 81.3156 38.568C81.1396 38.792 80.9876 38.976 80.8596 39.12C80.8116 39.168 80.7796 39.192 80.7636 39.192C80.7156 39.192 80.6916 39.144 80.6916 39.048C80.6916 38.856 80.7396 38.68 80.8356 38.52C81.1716 38.088 81.4276 37.752 81.6036 37.512C81.7796 37.256 81.9236 37.032 82.0356 36.84C82.1636 36.632 82.2916 36.4 82.4196 36.144C82.4516 35.968 82.5076 35.752 82.5876 35.496C82.6836 35.24 82.8996 35.112 83.2356 35.112C83.7316 35.112 83.9796 35.216 83.9796 35.424C83.9796 35.488 83.9636 35.56 83.9316 35.64C83.8996 35.704 83.8676 35.776 83.8356 35.856C83.6436 36.288 83.4356 36.784 83.2116 37.344C82.9876 37.904 82.7796 38.432 82.5876 38.928C82.4116 39.424 82.2756 39.808 82.1796 40.08C82.3556 39.856 82.6196 39.544 82.9716 39.144C83.3236 38.728 83.7236 38.28 84.1716 37.8C84.6356 37.304 85.1076 36.84 85.5876 36.408C86.0836 35.96 86.5476 35.592 86.9796 35.304C87.4116 35.016 87.7796 34.872 88.0836 34.872C88.4516 34.872 88.6356 35.08 88.6356 35.496C88.6356 35.816 88.5076 36.232 88.2516 36.744C88.1396 36.984 87.9876 37.312 87.7956 37.728C87.6036 38.128 87.4516 38.432 87.3396 38.64C87.6276 38.384 87.9556 38.104 88.3236 37.8C88.6916 37.48 89.0756 37.184 89.4756 36.912C89.8916 36.64 90.2756 36.44 90.6276 36.312C90.7076 36.28 90.8676 36.232 91.1076 36.168C91.3476 36.088 91.5556 36.048 91.7316 36.048C91.9716 36.048 92.0916 36.128 92.0916 36.288C92.0916 36.4 92.0356 36.52 91.9236 36.648C91.6516 37.064 91.4036 37.512 91.1796 37.992C90.9716 38.456 90.8036 38.896 90.6756 39.312C90.5476 39.728 90.4676 40.064 90.4356 40.32C90.4196 40.384 90.4116 40.448 90.4116 40.512C90.4116 40.56 90.4116 40.616 90.4116 40.68C90.4116 41.32 90.6196 41.64 91.0356 41.64C91.2916 41.64 91.6196 41.504 92.0196 41.232C92.4196 40.944 92.8276 40.6 93.2436 40.2C93.6596 39.784 94.0356 39.392 94.3716 39.024C94.7236 38.64 94.9636 38.352 95.0916 38.16C95.1396 38.112 95.1876 38.088 95.2356 38.088C95.2996 38.088 95.3476 38.112 95.3796 38.16C95.4276 38.208 95.4356 38.272 95.4036 38.352C95.2596 38.624 95.0116 38.968 94.6596 39.384C94.3236 39.784 93.9396 40.192 93.5076 40.608C93.0916 41.008 92.6836 41.352 92.2836 41.64C92.0756 41.8 91.8116 41.936 91.4916 42.048C91.1876 42.176 90.8756 42.24 90.5556 42.24C90.2676 42.24 90.0036 42.176 89.7636 42.048C89.5396 41.92 89.3716 41.68 89.2596 41.328C89.2116 41.184 89.1876 41 89.1876 40.776C89.1876 40.424 89.2356 40.024 89.3316 39.576C89.4276 39.128 89.5316 38.752 89.6436 38.448C89.7236 38.224 89.8276 37.976 89.9556 37.704C90.0996 37.416 90.2276 37.176 90.3396 36.984C89.8436 37.176 89.3636 37.464 88.8996 37.848C88.4356 38.232 88.0116 38.624 87.6276 39.024C87.2596 39.408 86.9476 39.728 86.6916 39.984C86.6276 40.16 86.4996 40.304 86.3076 40.416C86.1316 40.528 85.9636 40.584 85.8036 40.584C85.5636 40.584 85.4436 40.48 85.4436 40.272C85.4436 40.192 85.4676 40.096 85.5156 39.984C85.6756 39.6 85.8516 39.208 86.0436 38.808C86.2516 38.392 86.4356 38.016 86.5956 37.68C86.7716 37.344 86.8916 37.112 86.9556 36.984C87.0836 36.76 87.1476 36.584 87.1476 36.456C87.1476 36.328 87.0916 36.264 86.9796 36.264C86.8676 36.264 86.6836 36.336 86.4276 36.48C86.1716 36.624 85.8356 36.88 85.4196 37.248C85.0836 37.552 84.7156 37.952 84.3156 38.448C83.9156 38.928 83.5316 39.424 83.1636 39.936C82.7956 40.448 82.4676 40.888 82.1796 41.256C81.9076 41.624 81.7156 41.84 81.6036 41.904C81.5076 41.952 81.3156 42.032 81.0276 42.144C80.7556 42.256 80.5476 42.312 80.4036 42.312ZM98.5958 33.648C98.3878 33.648 98.1718 33.632 97.9478 33.6C97.7238 33.552 97.6118 33.4 97.6118 33.144C97.6118 33.096 97.7158 32.984 97.9238 32.808C98.1478 32.632 98.3718 32.456 98.5958 32.28C98.8358 32.088 98.9798 31.976 99.0278 31.944C99.2998 31.72 99.4678 31.608 99.5318 31.608C99.6118 31.608 99.6118 31.712 99.5318 31.92C99.4518 32.128 99.4118 32.312 99.4118 32.472C99.4118 32.552 99.3638 32.688 99.2678 32.88C99.1718 33.072 99.0598 33.248 98.9318 33.408C98.8038 33.568 98.6918 33.648 98.5958 33.648ZM95.9798 42.24C95.6918 42.24 95.4278 42.176 95.1878 42.048C94.9638 41.92 94.7958 41.68 94.6838 41.328C94.6678 41.28 94.6518 41.232 94.6357 41.184C94.6357 41.136 94.6357 41.08 94.6357 41.016C94.6357 40.696 94.7078 40.296 94.8518 39.816C94.9958 39.336 95.1718 38.872 95.3798 38.424C95.2838 38.552 95.1718 38.712 95.0438 38.904C94.9158 39.08 94.7318 39.312 94.4918 39.6C94.4278 39.664 94.3558 39.696 94.2758 39.696C94.1638 39.696 94.1078 39.632 94.1078 39.504C94.1078 39.408 94.1398 39.328 94.2038 39.264C94.6198 38.736 94.9878 38.264 95.3078 37.848C95.6438 37.432 95.8918 37.08 96.0518 36.792C96.0518 36.776 96.0438 36.768 96.0278 36.768C96.0278 36.752 96.0278 36.736 96.0278 36.72C96.0278 36.672 96.0518 36.6 96.0998 36.504C96.2278 36.12 96.3558 35.8 96.4838 35.544C96.6278 35.272 96.7798 35.12 96.9398 35.088C96.9718 35.088 97.0038 35.088 97.0358 35.088C97.0678 35.072 97.0998 35.064 97.1318 35.064C97.3078 35.064 97.4678 35.104 97.6118 35.184C97.7558 35.264 97.8278 35.384 97.8278 35.544C97.8278 35.688 97.7718 35.864 97.6598 36.072C97.5638 36.28 97.4358 36.536 97.2758 36.84C96.9238 37.576 96.6038 38.248 96.3158 38.856C96.0438 39.448 95.8918 39.936 95.8598 40.32C95.8438 40.384 95.8358 40.448 95.8358 40.512C95.8358 40.56 95.8358 40.616 95.8358 40.68C95.8358 41.32 96.0438 41.64 96.4598 41.64C96.7158 41.64 97.0438 41.504 97.4438 41.232C97.8438 40.944 98.2518 40.6 98.6678 40.2C99.0838 39.784 99.4598 39.392 99.7958 39.024C100.148 38.64 100.388 38.352 100.516 38.16C100.564 38.112 100.612 38.088 100.66 38.088C100.724 38.088 100.772 38.112 100.804 38.16C100.852 38.208 100.86 38.272 100.828 38.352C100.684 38.624 100.436 38.968 100.084 39.384C99.7478 39.784 99.3638 40.192 98.9318 40.608C98.5158 41.008 98.1078 41.352 97.7078 41.64C97.4998 41.8 97.2358 41.936 96.9158 42.048C96.6118 42.176 96.2998 42.24 95.9798 42.24ZM99.2098 42.312C99.0978 42.312 99.0658 42.256 99.1138 42.144C99.1618 42.048 99.2498 41.832 99.3778 41.496C99.5058 41.144 99.6498 40.728 99.8098 40.248C99.9858 39.768 100.162 39.272 100.338 38.76C100.514 38.248 100.674 37.768 100.818 37.32C100.978 36.872 101.106 36.52 101.202 36.264C101.234 36.168 101.266 36.032 101.298 35.856C101.33 35.664 101.394 35.496 101.49 35.352C101.602 35.192 101.786 35.112 102.042 35.112C102.522 35.112 102.762 35.224 102.762 35.448C102.762 35.528 102.722 35.664 102.642 35.856C102.45 36.288 102.242 36.784 102.018 37.344C101.794 37.904 101.594 38.432 101.418 38.928C101.242 39.424 101.106 39.808 101.01 40.08C101.17 39.856 101.426 39.536 101.778 39.12C102.146 38.704 102.554 38.256 103.002 37.776C103.45 37.296 103.914 36.832 104.394 36.384C104.89 35.936 105.346 35.576 105.762 35.304C106.194 35.016 106.562 34.872 106.866 34.872C107.25 34.872 107.442 35.08 107.442 35.496C107.442 35.64 107.402 35.856 107.322 36.144C107.178 36.544 106.994 36.936 106.77 37.32C106.546 37.688 106.346 38.08 106.17 38.496C105.866 39.248 105.69 39.856 105.642 40.32C105.626 40.384 105.618 40.448 105.618 40.512C105.618 40.56 105.618 40.616 105.618 40.68C105.618 41.32 105.834 41.64 106.266 41.64C106.506 41.64 106.826 41.496 107.226 41.208C107.626 40.92 108.034 40.576 108.45 40.176C108.882 39.776 109.266 39.392 109.602 39.024C109.938 38.64 110.17 38.352 110.298 38.16C110.346 38.112 110.394 38.088 110.442 38.088C110.506 38.088 110.554 38.112 110.586 38.16C110.634 38.208 110.642 38.272 110.61 38.352C110.466 38.624 110.218 38.968 109.866 39.384C109.53 39.784 109.154 40.192 108.738 40.608C108.322 41.008 107.914 41.352 107.514 41.64C107.274 41.8 106.978 41.944 106.626 42.072C106.274 42.2 105.922 42.256 105.57 42.24C105.122 42.192 104.802 42.04 104.61 41.784C104.418 41.512 104.322 41.192 104.322 40.824C104.322 40.392 104.402 39.936 104.562 39.456C104.738 38.96 104.93 38.496 105.138 38.064C105.346 37.632 105.514 37.304 105.642 37.08C105.77 36.824 105.834 36.624 105.834 36.48C105.834 36.352 105.778 36.288 105.666 36.288C105.554 36.288 105.386 36.36 105.162 36.504C104.938 36.648 104.634 36.896 104.25 37.248C103.898 37.552 103.522 37.952 103.122 38.448C102.722 38.928 102.33 39.424 101.946 39.936C101.578 40.448 101.25 40.888 100.962 41.256C100.69 41.624 100.498 41.84 100.386 41.904C100.306 41.952 100.122 42.032 99.8338 42.144C99.5618 42.256 99.3538 42.312 99.2098 42.312Z" fill="black"/>
</svg>
